<?xml version="1.0" standalone="no"?>
<svg xmlns:xlink="http://www.w3.org/1999/xlink" id="wave" style="transform:rotate(0deg); transition: 0.3s" viewBox="0 0 1440 490" version="1.1" xmlns="http://www.w3.org/2000/svg"><defs><linearGradient id="sw-gradient-0" x1="0" x2="0" y1="1" y2="0"><stop stop-color="rgba(46.17, 175.633, 171.247, 1)" offset="0%"/><stop stop-color="rgba(8.581, 48.642, 120.99, 1)" offset="100%"/></linearGradient></defs><path style="transform:translate(0, 0px); opacity:1" fill="url(#sw-gradient-0)" d="M0,392L40,367.5C80,343,160,294,240,277.7C320,261,400,278,480,310.3C560,343,640,392,720,375.7C800,359,880,278,960,245C1040,212,1120,229,1200,236.8C1280,245,1360,245,1440,204.2C1520,163,1600,82,1680,98C1760,114,1840,229,1920,228.7C2000,229,2080,114,2160,122.5C2240,131,2320,261,2400,302.2C2480,343,2560,294,2640,253.2C2720,212,2800,180,2880,204.2C2960,229,3040,310,3120,318.5C3200,327,3280,261,3360,196C3440,131,3520,65,3600,49C3680,33,3760,65,3840,89.8C3920,114,4000,131,4080,155.2C4160,180,4240,212,4320,253.2C4400,294,4480,343,4560,334.8C4640,327,4720,261,4800,261.3C4880,261,4960,327,5040,318.5C5120,310,5200,229,5280,220.5C5360,212,5440,278,5520,326.7C5600,376,5680,408,5720,424.7L5760,441L5760,490L5720,490C5680,490,5600,490,5520,490C5440,490,5360,490,5280,490C5200,490,5120,490,5040,490C4960,490,4880,490,4800,490C4720,490,4640,490,4560,490C4480,490,4400,490,4320,490C4240,490,4160,490,4080,490C4000,490,3920,490,3840,490C3760,490,3680,490,3600,490C3520,490,3440,490,3360,490C3280,490,3200,490,3120,490C3040,490,2960,490,2880,490C2800,490,2720,490,2640,490C2560,490,2480,490,2400,490C2320,490,2240,490,2160,490C2080,490,2000,490,1920,490C1840,490,1760,490,1680,490C1600,490,1520,490,1440,490C1360,490,1280,490,1200,490C1120,490,1040,490,960,490C880,490,800,490,720,490C640,490,560,490,480,490C400,490,320,490,240,490C160,490,80,490,40,490L0,490Z"/></svg>